<svg xmlns="http://www.w3.org/2000/svg" viewBox="0 0 512 512" width="100%" height="100%">
  <defs>
    <linearGradient id="bgGrad" x1="0%" y1="0%" x2="100%" y2="100%">
      <stop offset="0%" stop-color="#0f172a" />
      <stop offset="100%" stop-color="#1e293b" />
    </linearGradient>

    <linearGradient id="barGrad" x1="0%" y1="0%" x2="0%" y2="100%">
      <stop offset="0%" stop-color="#38bdf8" />
      <stop offset="100%" stop-color="#2563eb" />
    </linearGradient>

    <filter id="glow" x="-20%" y="-20%" width="140%" height="140%">
      <feDropShadow dx="0" dy="8" stdDeviation="12" flood-color="#0f172a" flood-opacity="0.9"/>
    </filter>
  </defs>

  <rect width="512" height="512" rx="112" fill="url(#bgGrad)" />

  <g opacity="0.65">
    <rect x="20"  y="280" width="96" height="200" rx="12" fill="url(#barGrad)" />
    <rect x="140" y="120" width="96" height="360" rx="12" fill="url(#barGrad)" />
    <rect x="260" y="210" width="96" height="270" rx="12" fill="url(#barGrad)" />
    <rect x="380" y="28"  width="96" height="452" rx="12" fill="url(#barGrad)" />
  </g>

  <g stroke="#ffffff" stroke-width="16" stroke-linecap="round" stroke-linejoin="round" fill="none" filter="url(#glow)">

    <path d="M 68 240 Q 248 400 428 240" />

    <line x1="248" y1="298" x2="248" y2="360" />

    <line x1="188" y1="284" x2="158" y2="334" />

    <line x1="308" y1="284" x2="338" y2="334" />

    <line x1="148" y1="260" x2="108" y2="300" />

    <line x1="348" y1="260" x2="388" y2="300" />

  </g>
</svg>
