<svg xmlns="http://www.w3.org/2000/svg" viewBox="0 0 74 56" width="100%" height="100%">
  <defs>
    <linearGradient id="bgGrad" x1="0%" y1="0%" x2="100%" y2="100%">
      <stop offset="0%" stop-color="#0f172a" />
      <stop offset="100%" stop-color="#1e293b" />
    </linearGradient>
    
    <linearGradient id="barGrad" x1="0%" y1="0%" x2="0%" y2="100%">
      <stop offset="0%" stop-color="#38bdf8" />
      <stop offset="100%" stop-color="#2563eb" />
    </linearGradient>
    
    <filter id="glow" x="-20%" y="-20%" width="140%" height="140%">
      <feDropShadow dx="0" dy="1" stdDeviation="1.5" flood-color="#0f172a" flood-opacity="0.9"/>
    </filter>
  </defs>

  <rect width="74" height="56" rx="8" fill="url(#bgGrad)" />

  <g opacity="0.65">
    <rect x="19" y="30" width="6" height="18" rx="1.5" fill="url(#barGrad)" />
    <rect x="29" y="20" width="6" height="28" rx="1.5" fill="url(#barGrad)" />
    <rect x="39" y="26" width="6" height="22" rx="1.5" fill="url(#barGrad)" />
    <rect x="49" y="16" width="6" height="32" rx="1.5" fill="url(#barGrad)" />
  </g>

  <g stroke="#ffffff" stroke-width="2" stroke-linecap="round" stroke-linejoin="round" fill="none" filter="url(#glow)">
    
    <path d="M 15 25 Q 37 39 59 25" />
    
    <line x1="37" y1="32" x2="37" y2="40" />
    
    <line x1="26" y1="30" x2="22" y2="36" />
    
    <line x1="48" y1="30" x2="52" y2="36" />
    
    <line x1="19" y1="27" x2="13" y2="31" />
    
    <line x1="55" y1="27" x2="61" y2="31" />
    
  </g>
</svg>
